<svg width="40" height="40" viewBox="0 0 40 40" fill="none" xmlns="http://www.w3.org/2000/svg">
<rect width="40" height="40" rx="20" fill="black" fill-opacity="0.15"/>
<g clip-path="url(#clip0_1611_968)">
<path d="M19.9906 8.76127C13.3306 8.66752 8.38433 14.3713 8.7162 20.4706C9.10808 27.6538 14.2437 31.2631 20.2512 31.2219C26.5625 31.1788 31.3512 26.705 31.22 19.9475C31.0906 13.2013 26.1293 8.8494 19.9906 8.76127Z" fill="#C8C8C8"/>
<path d="M14.7237 10.8519C10.0625 13.5238 7.10374 21.0969 12.0687 26.8269C12.6762 27.5281 13.6419 28.0175 14.375 28.3513C19.3812 30.6144 25.4394 27.1344 27.7831 24.4813C29.6431 22.3756 30.3275 20.9788 30.1062 18.1044C29.9356 15.8694 28.9794 13.7113 26.9975 12.1156C22.5162 8.50064 17.6844 9.15314 14.7237 10.8519Z" fill="white"/>
<path d="M19.4187 15.4606C19.4019 15.4512 17.6675 14.4556 16.3212 13.9569C14.9187 13.4375 13.8837 13.1581 13.8725 13.1562L14.0656 12.4325C14.1087 12.4437 15.1437 12.7212 16.5819 13.2556C17.9881 13.7769 19.7206 14.7706 19.7937 14.8137L19.4187 15.4606ZM22.4688 13.5039L23.4894 9.86224L24.2116 10.0646L23.1912 13.7062L22.4688 13.5039ZM30.05 18.2225C30.0406 18.2187 29.0431 17.84 27.9294 17.5381C27.0912 17.3112 26.0112 17.0806 26 17.0787L26.1556 16.3456C26.2006 16.355 27.2656 16.5819 28.1244 16.8144C29.2775 17.1256 30.275 17.5062 30.3181 17.5212L30.05 18.2225ZM24.1494 25.58C24.1494 25.5687 24.0556 24.425 23.8306 23.255C23.6075 22.1 23.1819 21.0125 23.1781 21.0031L23.8756 20.7275C23.8944 20.7744 24.3312 21.8881 24.5675 23.1144C24.8 24.3275 24.8937 25.4731 24.8975 25.5219L24.1494 25.58ZM27.8787 26.6225L27.3837 26.0581C27.3912 26.0525 28.1112 25.415 29 24.215C29.8212 23.105 30.2 22.1337 30.2037 22.1225L30.9031 22.3906C30.8862 22.4337 30.4831 23.4687 29.6019 24.6594C28.6625 25.9306 27.9106 26.5944 27.8787 26.6225ZM14.1588 22.79L18.4981 18.9168L18.9976 19.4763L14.6581 23.3495L14.1588 22.79ZM10.4206 21.7531C10.4094 21.68 10.1619 19.9456 10.1619 18.3594C10.1619 16.7769 10.3419 15.3125 10.3512 15.2506L11.0956 15.3444C11.0937 15.3594 10.9137 16.8256 10.9137 18.3594C10.9137 19.8894 11.1631 21.6294 11.165 21.6462L10.4206 21.7531ZM21.3687 29.3094C21.3219 29.3037 20.1781 29.1594 18.2 28.5781C16.94 28.2069 15.5 27.4456 15.4381 27.4137L15.7906 26.7519C15.8056 26.7594 17.225 27.5112 18.4119 27.86C20.3244 28.4225 21.4494 28.565 21.4606 28.5669L21.3687 29.3094Z" fill="#171717"/>
<path d="M18.0069 14.135C17.9488 14.2812 18.0257 19.5031 18.1438 19.6587C18.2619 19.8144 23.5119 21.5975 23.7463 21.5394C23.9807 21.4812 26.7819 17.0731 26.7819 16.8969C26.7819 16.7206 23.3357 12.47 23.1594 12.4306C22.9832 12.3912 18.0857 13.9381 18.0069 14.135ZM30.0051 14.7762C30.0051 14.7762 29.2326 17.3469 29.2326 17.5437C29.2326 17.7387 29.7032 18.8169 29.9188 20.1481C30.1344 21.4794 29.8213 23.4781 29.9582 23.5569C30.0951 23.6356 30.7738 23.5962 30.7738 23.5962C30.7738 23.5962 31.4282 21.5394 31.1526 18.8956C30.8769 16.25 30.0051 14.7762 30.0051 14.7762ZM24.4326 25.0062C24.2751 25.0212 20.1426 28.5706 20.1613 28.67C20.1801 28.7675 21.7794 31.1244 21.7794 31.1244C21.7794 31.1244 23.7894 30.965 25.6307 29.9675C27.4719 28.97 28.1713 28.0831 28.1713 28.0831C28.1713 28.0831 28.4263 25.7131 28.3288 25.6944C28.2332 25.6719 24.6294 24.9875 24.4326 25.0062ZM10.6419 20.5794C10.5351 20.6675 9.91631 22.0287 9.74006 22.7937C9.56381 23.5569 9.46631 24.2825 9.46631 24.2825C9.46631 24.2825 9.93693 25.6437 10.6419 26.6525C11.5157 27.9012 12.6519 28.7825 12.6519 28.7825C12.6519 28.7825 16.3607 27.6519 16.3813 27.4944C16.4019 27.3369 15.9501 25.9662 15.6369 24.83C15.3238 23.6937 15.2657 22.4206 15.1476 22.3419C15.0294 22.2631 13.8351 21.8919 12.8957 21.5187C11.9563 21.1456 10.7601 20.4819 10.6419 20.5794ZM9.47943 15.8525C9.47943 15.8525 10.5051 16.7394 10.6626 16.7394C10.8201 16.7394 11.8138 15.4231 12.8169 14.6244C14.1688 13.5462 14.8344 13.1937 14.8551 13.0569C14.8738 12.92 15.4626 9.6481 15.4626 9.6481C15.4626 9.6481 13.2876 10.4712 11.7013 12.2919C10.1151 14.1125 9.47943 15.8525 9.47943 15.8525ZM20.5719 8.77435C20.5719 8.77435 21.8226 9.41748 22.2782 9.73435C22.7338 10.0512 23.4051 10.7225 23.6038 10.7431C23.8007 10.7637 26.5213 10.7656 26.5213 10.7656C26.5213 10.7656 25.2876 9.92185 23.9207 9.4381C22.2763 8.85498 20.5719 8.77435 20.5719 8.77435Z" fill="#474C4F"/>
</g>
<defs>
<clipPath id="clip0_1611_968">
<rect width="24" height="24" fill="white" transform="translate(8 8)"/>
</clipPath>
</defs>
</svg>
