<svg width="24" height="24" viewBox="0 0 24 24" fill="none" xmlns="http://www.w3.org/2000/svg">
<rect width="24" height="24" rx="12" fill="black" fill-opacity="0.15"/>
<g clip-path="url(#clip0_1702_50)">
<path d="M12 20C16.4183 20 20 16.4183 20 12C20 7.58172 16.4183 4 12 4C7.58172 4 4 7.58172 4 12C4 16.4183 7.58172 20 12 20Z" fill="#CAC4D0"/>
<path d="M19.9323 10.9565H13.0435H13.0435V4.06772C12.7019 4.02325 12.3537 4 12 4C11.6463 4 11.2981 4.02325 10.9565 4.06772V10.9565V10.9565H4.06772C4.02325 11.2981 4 11.6463 4 12C4 12.3537 4.02325 12.7019 4.06772 13.0435H10.9565H10.9565V19.9323C11.2981 19.9768 11.6463 20 12 20C12.3537 20 12.7019 19.9768 13.0435 19.9323V13.0435V13.0435H19.9323C19.9768 12.7019 20 12.3537 20 12C20 11.6463 19.9768 11.2981 19.9323 10.9565Z" fill="#D80027"/>
</g>
<defs>
<clipPath id="clip0_1702_50">
<rect width="16" height="16" fill="white" transform="translate(4 4)"/>
</clipPath>
</defs>
</svg>
