<svg width="3" height="11" viewBox="0 0 3 11" fill="none" xmlns="http://www.w3.org/2000/svg">
<path fill-rule="evenodd" clip-rule="evenodd" d="M1.33333 2.66668C2.06667 2.66668 2.66667 2.06668 2.66667 1.33335C2.66667 0.600015 2.06667 1.52588e-05 1.33333 1.52588e-05C0.6 1.52588e-05 0 0.600015 0 1.33335C0 2.06668 0.6 2.66668 1.33333 2.66668ZM1.33333 4.00002C0.6 4.00002 0 4.60002 0 5.33335C0 6.06668 0.6 6.66668 1.33333 6.66668C2.06667 6.66668 2.66667 6.06668 2.66667 5.33335C2.66667 4.60002 2.06667 4.00002 1.33333 4.00002ZM0 9.33335C0 8.60001 0.6 8.00001 1.33333 8.00001C2.06667 8.00001 2.66667 8.60001 2.66667 9.33335C2.66667 10.0667 2.06667 10.6667 1.33333 10.6667C0.6 10.6667 0 10.0667 0 9.33335Z" fill="white"/>
</svg>
