<svg width="206" height="40" viewBox="0 0 206 40" fill="none" xmlns="http://www.w3.org/2000/svg">
<rect width="206" height="40" rx="20" fill="black" fill-opacity="0.15"/>
<g clip-path="url(#clip0_1611_986)">
<path d="M24 28C28.4183 28 32 24.4183 32 20C32 15.5817 28.4183 12 24 12C19.5817 12 16 15.5817 16 20C16 24.4183 19.5817 28 24 28Z" fill="#CAC4D0"/>
<path d="M31.9323 18.9565H25.0435H25.0435V12.0677C24.7019 12.0233 24.3537 12 24 12C23.6463 12 23.2981 12.0233 22.9565 12.0677V18.9565V18.9565H16.0677C16.0233 19.2981 16 19.6463 16 20C16 20.3537 16.0233 20.7019 16.0677 21.0435H22.9565H22.9565V27.9323C23.2981 27.9768 23.6463 28 24 28C24.3537 28 24.7019 27.9768 25.0435 27.9323V21.0435V21.0435H31.9323C31.9768 20.7019 32 20.3537 32 20C32 19.6463 31.9768 19.2981 31.9323 18.9565Z" fill="#D80027"/>
</g>
<path d="M49.2338 18.192C49.2338 18.7573 49.1005 19.2907 48.8338 19.792C48.5671 20.2933 48.1405 20.704 47.5538 21.024C46.9671 21.3333 46.2151 21.488 45.2978 21.488H43.2818V26H41.4578V14.88H45.2978C46.1511 14.88 46.8711 15.0293 47.4578 15.328C48.0551 15.616 48.4978 16.0107 48.7858 16.512C49.0845 17.0133 49.2338 17.5733 49.2338 18.192ZM45.2978 20C45.9911 20 46.5085 19.8453 46.8498 19.536C47.1911 19.216 47.3618 18.768 47.3618 18.192C47.3618 16.976 46.6738 16.368 45.2978 16.368H43.2818V20H45.2978ZM52.7974 18.464C53.0641 18.016 53.4161 17.6693 53.8534 17.424C54.3014 17.168 54.8294 17.04 55.4374 17.04V18.928H54.9734C54.2588 18.928 53.7148 19.1093 53.3414 19.472C52.9788 19.8347 52.7974 20.464 52.7974 21.36V26H50.9734V17.184H52.7974V18.464ZM65.1941 21.376C65.1941 21.7067 65.1727 22.0053 65.1301 22.272H58.3941C58.4474 22.976 58.7087 23.5413 59.1781 23.968C59.6474 24.3947 60.2234 24.608 60.9061 24.608C61.8874 24.608 62.5807 24.1973 62.9861 23.376H64.9541C64.6874 24.1867 64.2021 24.8533 63.4981 25.376C62.8047 25.888 61.9407 26.144 60.9061 26.144C60.0634 26.144 59.3061 25.9573 58.6341 25.584C57.9727 25.2 57.4501 24.6667 57.0661 23.984C56.6927 23.2907 56.5061 22.4907 56.5061 21.584C56.5061 20.6773 56.6874 19.8827 57.0501 19.2C57.4234 18.5067 57.9407 17.9733 58.6021 17.6C59.2741 17.2267 60.0421 17.04 60.9061 17.04C61.7381 17.04 62.4794 17.2213 63.1301 17.584C63.7807 17.9467 64.2874 18.4587 64.6501 19.12C65.0127 19.7707 65.1941 20.5227 65.1941 21.376ZM63.2901 20.8C63.2794 20.128 63.0394 19.5893 62.5701 19.184C62.1007 18.7787 61.5194 18.576 60.8261 18.576C60.1967 18.576 59.6581 18.7787 59.2101 19.184C58.7621 19.5787 58.4954 20.1173 58.4101 20.8H63.2901ZM77.6611 17.04C78.3544 17.04 78.9731 17.184 79.5171 17.472C80.0717 17.76 80.5037 18.1867 80.8131 18.752C81.1331 19.3173 81.2931 20 81.2931 20.8V26H79.4851V21.072C79.4851 20.2827 79.2877 19.68 78.8931 19.264C78.4984 18.8373 77.9597 18.624 77.2771 18.624C76.5944 18.624 76.0504 18.8373 75.6451 19.264C75.2504 19.68 75.0531 20.2827 75.0531 21.072V26H73.2451V21.072C73.2451 20.2827 73.0477 19.68 72.6531 19.264C72.2584 18.8373 71.7197 18.624 71.0371 18.624C70.3544 18.624 69.8104 18.8373 69.4051 19.264C69.0104 19.68 68.8131 20.2827 68.8131 21.072V26H66.9891V17.184H68.8131V18.192C69.1117 17.8293 69.4904 17.5467 69.9491 17.344C70.4077 17.1413 70.8984 17.04 71.4211 17.04C72.1251 17.04 72.7544 17.1893 73.3091 17.488C73.8637 17.7867 74.2904 18.2187 74.5891 18.784C74.8557 18.2507 75.2717 17.8293 75.8371 17.52C76.4024 17.2 77.0104 17.04 77.6611 17.04ZM84.5421 16.016C84.2114 16.016 83.9341 15.904 83.7101 15.68C83.4861 15.456 83.3741 15.1787 83.3741 14.848C83.3741 14.5173 83.4861 14.24 83.7101 14.016C83.9341 13.792 84.2114 13.68 84.5421 13.68C84.8621 13.68 85.1341 13.792 85.3581 14.016C85.5821 14.24 85.6941 14.5173 85.6941 14.848C85.6941 15.1787 85.5821 15.456 85.3581 15.68C85.1341 15.904 84.8621 16.016 84.5421 16.016ZM85.4381 17.184V26H83.6141V17.184H85.4381ZM95.9128 21.376C95.9128 21.7067 95.8915 22.0053 95.8488 22.272H89.1128C89.1661 22.976 89.4275 23.5413 89.8968 23.968C90.3661 24.3947 90.9421 24.608 91.6248 24.608C92.6061 24.608 93.2995 24.1973 93.7048 23.376H95.6728C95.4061 24.1867 94.9208 24.8533 94.2168 25.376C93.5235 25.888 92.6595 26.144 91.6248 26.144C90.7821 26.144 90.0248 25.9573 89.3528 25.584C88.6915 25.2 88.1688 24.6667 87.7848 23.984C87.4115 23.2907 87.2248 22.4907 87.2248 21.584C87.2248 20.6773 87.4061 19.8827 87.7688 19.2C88.1421 18.5067 88.6595 17.9733 89.3208 17.6C89.9928 17.2267 90.7608 17.04 91.6248 17.04C92.4568 17.04 93.1981 17.2213 93.8488 17.584C94.4995 17.9467 95.0061 18.4587 95.3688 19.12C95.7315 19.7707 95.9128 20.5227 95.9128 21.376ZM94.0088 20.8C93.9981 20.128 93.7581 19.5893 93.2888 19.184C92.8195 18.7787 92.2381 18.576 91.5448 18.576C90.9155 18.576 90.3768 18.7787 89.9288 19.184C89.4808 19.5787 89.2141 20.1173 89.1288 20.8H94.0088ZM99.5318 18.464C99.7985 18.016 100.15 17.6693 100.588 17.424C101.036 17.168 101.564 17.04 102.172 17.04V18.928H101.708C100.993 18.928 100.449 19.1093 100.076 19.472C99.7131 19.8347 99.5318 20.464 99.5318 21.36V26H97.7078V17.184H99.5318V18.464ZM109.829 24.528H113.589V26H108.005V14.88H109.829V24.528ZM123.194 21.376C123.194 21.7067 123.173 22.0053 123.13 22.272H116.394C116.447 22.976 116.709 23.5413 117.178 23.968C117.647 24.3947 118.223 24.608 118.906 24.608C119.887 24.608 120.581 24.1973 120.986 23.376H122.954C122.687 24.1867 122.202 24.8533 121.498 25.376C120.805 25.888 119.941 26.144 118.906 26.144C118.063 26.144 117.306 25.9573 116.634 25.584C115.973 25.2 115.45 24.6667 115.066 23.984C114.693 23.2907 114.506 22.4907 114.506 21.584C114.506 20.6773 114.687 19.8827 115.05 19.2C115.423 18.5067 115.941 17.9733 116.602 17.6C117.274 17.2267 118.042 17.04 118.906 17.04C119.738 17.04 120.479 17.2213 121.13 17.584C121.781 17.9467 122.287 18.4587 122.65 19.12C123.013 19.7707 123.194 20.5227 123.194 21.376ZM121.29 20.8C121.279 20.128 121.039 19.5893 120.57 19.184C120.101 18.7787 119.519 18.576 118.826 18.576C118.197 18.576 117.658 18.7787 117.21 19.184C116.762 19.5787 116.495 20.1173 116.41 20.8H121.29ZM124.381 21.552C124.381 20.6667 124.562 19.8827 124.925 19.2C125.298 18.5173 125.8 17.9893 126.429 17.616C127.069 17.232 127.773 17.04 128.541 17.04C129.234 17.04 129.837 17.1787 130.349 17.456C130.872 17.7227 131.288 18.0587 131.597 18.464V17.184H133.437V26H131.597V24.688C131.288 25.104 130.866 25.4507 130.333 25.728C129.8 26.0053 129.192 26.144 128.509 26.144C127.752 26.144 127.058 25.952 126.429 25.568C125.8 25.1733 125.298 24.6293 124.925 23.936C124.562 23.232 124.381 22.4373 124.381 21.552ZM131.597 21.584C131.597 20.976 131.469 20.448 131.213 20C130.968 19.552 130.642 19.2107 130.237 18.976C129.832 18.7413 129.394 18.624 128.925 18.624C128.456 18.624 128.018 18.7413 127.613 18.976C127.208 19.2 126.877 19.536 126.621 19.984C126.376 20.4213 126.253 20.944 126.253 21.552C126.253 22.16 126.376 22.6933 126.621 23.152C126.877 23.6107 127.208 23.9627 127.613 24.208C128.029 24.4427 128.466 24.56 128.925 24.56C129.394 24.56 129.832 24.4427 130.237 24.208C130.642 23.9733 130.968 23.632 131.213 23.184C131.469 22.7253 131.597 22.192 131.597 21.584ZM139.385 17.04C140.067 17.04 140.67 17.1787 141.193 17.456C141.726 17.7227 142.142 18.0587 142.441 18.464V17.184H144.281V26.144C144.281 26.9547 144.11 27.6747 143.769 28.304C143.427 28.944 142.931 29.4453 142.281 29.808C141.641 30.1707 140.873 30.352 139.977 30.352C138.782 30.352 137.79 30.0693 137.001 29.504C136.211 28.9493 135.763 28.192 135.657 27.232H137.465C137.603 27.6907 137.897 28.0587 138.345 28.336C138.803 28.624 139.347 28.768 139.977 28.768C140.713 28.768 141.305 28.544 141.753 28.096C142.211 27.648 142.441 26.9973 142.441 26.144V24.672C142.131 25.088 141.71 25.44 141.177 25.728C140.654 26.0053 140.057 26.144 139.385 26.144C138.617 26.144 137.913 25.952 137.273 25.568C136.643 25.1733 136.142 24.6293 135.769 23.936C135.406 23.232 135.225 22.4373 135.225 21.552C135.225 20.6667 135.406 19.8827 135.769 19.2C136.142 18.5173 136.643 17.9893 137.273 17.616C137.913 17.232 138.617 17.04 139.385 17.04ZM142.441 21.584C142.441 20.976 142.313 20.448 142.057 20C141.811 19.552 141.486 19.2107 141.081 18.976C140.675 18.7413 140.238 18.624 139.769 18.624C139.299 18.624 138.862 18.7413 138.457 18.976C138.051 19.2 137.721 19.536 137.465 19.984C137.219 20.4213 137.097 20.944 137.097 21.552C137.097 22.16 137.219 22.6933 137.465 23.152C137.721 23.6107 138.051 23.9627 138.457 24.208C138.873 24.4427 139.31 24.56 139.769 24.56C140.238 24.56 140.675 24.4427 141.081 24.208C141.486 23.9733 141.811 23.632 142.057 23.184C142.313 22.7253 142.441 22.192 142.441 21.584ZM154.661 17.184V26H152.837V24.96C152.549 25.3227 152.17 25.6107 151.701 25.824C151.242 26.0267 150.751 26.128 150.229 26.128C149.535 26.128 148.911 25.984 148.357 25.696C147.813 25.408 147.381 24.9813 147.061 24.416C146.751 23.8507 146.597 23.168 146.597 22.368V17.184H148.405V22.096C148.405 22.8853 148.602 23.4933 148.997 23.92C149.391 24.336 149.93 24.544 150.613 24.544C151.295 24.544 151.834 24.336 152.229 23.92C152.634 23.4933 152.837 22.8853 152.837 22.096V17.184H154.661ZM165.147 21.376C165.147 21.7067 165.126 22.0053 165.083 22.272H158.347C158.401 22.976 158.662 23.5413 159.131 23.968C159.601 24.3947 160.177 24.608 160.859 24.608C161.841 24.608 162.534 24.1973 162.939 23.376H164.907C164.641 24.1867 164.155 24.8533 163.451 25.376C162.758 25.888 161.894 26.144 160.859 26.144C160.017 26.144 159.259 25.9573 158.587 25.584C157.926 25.2 157.403 24.6667 157.019 23.984C156.646 23.2907 156.459 22.4907 156.459 21.584C156.459 20.6773 156.641 19.8827 157.003 19.2C157.377 18.5067 157.894 17.9733 158.555 17.6C159.227 17.2267 159.995 17.04 160.859 17.04C161.691 17.04 162.433 17.2213 163.083 17.584C163.734 17.9467 164.241 18.4587 164.603 19.12C164.966 19.7707 165.147 20.5227 165.147 21.376ZM163.243 20.8C163.233 20.128 162.993 19.5893 162.523 19.184C162.054 18.7787 161.473 18.576 160.779 18.576C160.15 18.576 159.611 18.7787 159.163 19.184C158.715 19.5787 158.449 20.1173 158.363 20.8H163.243Z" fill="#E6E0E9"/>
<path d="M178.94 17.53L182 20.5834L185.06 17.53L186 18.47L182 22.47L178 18.47L178.94 17.53Z" fill="#CAC4D0"/>
<defs>
<clipPath id="clip0_1611_986">
<rect width="16" height="16" fill="white" transform="translate(16 12)"/>
</clipPath>
</defs>
</svg>
