<svg width="40" height="40" viewBox="0 0 40 40" fill="none" xmlns="http://www.w3.org/2000/svg">
<rect width="40" height="40" rx="20" fill="black" fill-opacity="0.15"/>
<g clip-path="url(#clip0_1611_956)">
<path d="M31.9344 20C31.9344 26.5906 26.5907 31.9344 19.9982 31.9344C13.4094 31.9344 8.06567 26.5906 8.06567 20C8.06567 13.4075 13.4094 8.06561 19.9982 8.06561C26.5907 8.06561 31.9344 13.4075 31.9344 20Z" fill="#27A2DF"/>
<mask id="mask0_1611_956" style="mask-type:luminance" maskUnits="userSpaceOnUse" x="8" y="8" width="24" height="24">
<path d="M31.9344 20C31.9344 26.5906 26.5907 31.9344 19.9982 31.9344C13.4094 31.9344 8.06567 26.5906 8.06567 20C8.06567 13.4075 13.4094 8.06561 19.9982 8.06561C26.5907 8.06561 31.9344 13.4075 31.9344 20Z" fill="white"/>
</mask>
<g mask="url(#mask0_1611_956)">
<path d="M28.4357 23.5137C28.2389 23.3656 27.8376 23.1856 27.6145 23.1518C27.2339 23.0937 27.0276 23.2268 26.8495 22.8237C26.7014 22.4881 26.5907 22.2781 26.3264 22.0006C25.8164 21.4681 25.3551 21.2318 24.6632 20.9656H23.4857C22.9907 20.8306 22.4938 20.6543 22.0532 21.0481C22.0064 21.0893 21.967 21.1418 21.9239 21.1887C21.8751 21.2412 21.6557 21.26 21.5845 21.2787C21.4851 21.3031 21.3801 21.3331 21.2751 21.335C21.1139 21.3387 20.8926 21.2956 20.782 21.1681C20.7182 21.095 20.6807 20.9506 20.6714 20.855C20.6601 20.7275 20.7145 20.6168 20.7163 20.495C20.7201 20.3862 20.7257 20.2606 20.6957 20.1575C20.6339 19.9418 20.3901 19.88 20.2007 19.8387C20.0882 19.8143 19.9776 19.7975 19.8632 19.76C19.5764 19.6625 19.7245 19.2706 19.8463 19.0962C19.9701 18.9181 20.1482 18.7943 19.8501 18.6312C19.6101 18.5018 19.3157 18.5225 19.1039 18.68C18.9014 18.8337 18.7682 19.1318 18.5226 19.2087C18.2413 19.2987 17.9357 19.0925 17.6695 19.055C17.6957 18.7006 17.5176 18.0481 17.527 17.8868C17.5532 17.4612 17.8664 17 18.277 16.8875C18.6876 16.775 19.1395 16.6887 19.5651 16.7337C20.2232 16.8031 20.1951 17.1556 20.5382 17.615C20.6507 17.765 20.8664 17.9412 21.0614 17.8381C21.4757 17.6206 21.3482 17.0618 21.3614 16.685C21.382 16.0981 21.7589 15.7437 22.1189 15.3106C22.252 15.1512 22.387 14.9937 22.5182 14.8325C22.6364 14.6862 22.7751 14.5493 22.9739 14.5118C23.1126 14.4875 23.2832 14.5137 23.4239 14.5137C23.6526 14.5137 24.0895 14.5906 24.2226 14.3562C24.3464 14.135 24.1645 13.9831 23.9807 13.9118C23.9057 13.8818 23.7782 13.8668 23.7557 13.7731C23.6789 13.445 24.0314 13.4337 24.2507 13.3981C24.4495 13.3662 24.7064 13.3006 24.8582 13.4843C24.9257 13.5668 24.892 13.6662 24.9689 13.7506C25.1095 13.9025 25.4714 13.8162 25.6232 13.7281C25.7995 13.625 25.8482 13.3362 25.8482 13.1487C25.8482 13.0512 25.8332 12.95 25.777 12.8693C25.627 12.6556 25.1864 12.5581 24.9651 12.4325C24.6426 12.2487 24.3426 12.0312 24.0482 11.8081C23.7032 11.5475 23.3264 11.3375 22.9457 11.1368C22.6176 10.9662 22.2107 10.6831 21.8264 10.7506C21.6764 10.775 21.5939 10.8837 21.562 11.0281C21.5414 11.1368 21.4907 11.2475 21.4907 11.36C21.4926 11.4968 21.5564 11.6225 21.5957 11.75C21.6445 11.9093 21.6838 12.0725 21.5582 12.2056C21.4382 12.3312 21.172 12.3275 21.0332 12.2243C20.8645 12.0968 20.7951 11.8925 20.6095 11.795C20.4032 11.6862 20.2495 11.6562 20.0188 11.6843C19.8032 11.7106 19.5445 11.7368 19.3288 11.6825C19.1226 11.6318 18.922 11.3825 18.9182 11.1706C18.9145 11.0187 18.9482 10.8068 19.0926 10.7225C19.2632 10.625 19.5463 10.6493 19.7376 10.6343C19.777 10.6325 19.8145 10.6287 19.8501 10.625C19.8557 10.6231 19.8614 10.6231 19.867 10.6231C19.8726 10.6212 19.8801 10.6212 19.8857 10.6212C19.9401 10.6137 19.9907 10.6081 20.0264 10.5987C20.0245 10.595 20.0188 10.5912 20.017 10.5875C20.047 10.6437 20.2176 10.3962 20.2232 10.3681C20.2532 10.2443 20.1613 10.1 20.2063 9.98372C20.2401 9.89747 20.362 9.8431 20.4426 9.81684C20.5682 9.77747 20.6976 9.79997 20.8251 9.8131C20.9282 9.82435 21.0388 9.82435 21.1401 9.84497C21.3745 9.89372 21.382 10.0775 21.5282 10.22C21.7382 10.4168 21.8657 10.3306 22.1395 10.3681C22.4339 10.4075 23.2064 10.9137 23.4689 10.5181C23.7614 10.0775 22.9739 9.7531 22.7301 9.67247C22.3457 9.54497 21.9632 9.28435 21.712 8.9656C21.5882 8.8081 21.4907 8.61685 21.4945 8.4106C21.5001 8.24372 21.4945 7.98685 21.6501 7.87997C21.6876 7.8556 21.7289 7.8406 21.772 7.83872C21.8489 7.83122 21.9332 7.82747 21.997 7.86497C22.0907 7.9231 22.1676 8.0356 22.2164 8.13122C22.3195 8.33747 22.2839 8.53435 22.432 8.7406C22.5801 8.94122 22.7732 9.10435 22.9532 9.2731C23.4201 9.7081 23.9357 10.0943 24.5339 10.3231C24.8564 10.4468 25.1957 10.5425 25.5014 10.7112C25.8482 10.9062 25.9757 11.1575 26.2064 11.4556C26.8532 12.2862 28.7507 12.0162 28.3064 10.7056C27.9726 9.7231 27.3201 8.88122 26.4501 8.34872C26.032 8.09372 25.657 7.73935 25.2351 7.5031C24.7064 7.20872 24.0726 7.11872 23.4839 7.02122C22.7882 6.90685 22.1057 6.85435 21.4026 6.82247C20.8907 6.79997 20.3489 6.71747 19.9232 7.06247C19.6964 7.24435 19.0288 7.87622 19.0157 8.13872C19.0026 8.38997 19.3326 8.52497 19.3851 8.7556C19.4057 8.85497 19.4132 8.9431 19.3363 9.0181C19.252 9.1006 19.1357 9.12685 19.117 9.2581C19.102 9.37247 19.1451 9.44935 19.1901 9.54685C19.2257 9.62185 19.3026 9.76622 19.237 9.85059C19.0626 10.07 18.8282 9.67435 18.8132 9.52435C18.7907 9.2806 18.8676 9.06872 18.6201 8.91497C18.4532 8.81185 17.9995 8.76685 17.9301 9.0106C17.8963 9.12685 18.0276 9.23935 18.0126 9.37435C17.9807 9.6481 17.7989 9.57872 17.5907 9.61435C17.227 9.67622 17.152 9.9481 16.762 9.7681C16.7245 9.5731 16.837 9.2581 16.6476 9.12685C16.4957 9.02372 16.1545 9.09872 15.9839 9.03122C15.5563 8.85872 15.1795 8.80435 14.7238 8.93935C14.242 9.08372 13.7601 9.36872 13.2951 9.59935C12.697 9.8956 11.7613 9.51497 11.2738 9.95185L11.2645 10.0362C10.8632 10.0325 10.6963 10.0962 10.4151 10.4693C10.2126 10.7375 10.1095 10.9962 9.9876 11.2925C9.89572 11.5175 9.70447 11.7237 9.66885 11.975C9.64635 12.1512 9.65947 12.3743 9.68572 12.5487C9.69885 12.6462 10.567 12.3818 10.6776 12.395C11.0807 12.4475 11.392 12.8375 11.7145 13.0456C11.9901 13.22 12.3238 13.4 12.3726 13.7356C12.4326 14.1406 12.3576 14.5925 12.3688 15.0031C12.3913 15.8187 13.2351 16.4393 13.7376 17.0037C13.9607 17.255 13.9795 17.5681 14.1988 17.8043C14.3207 17.9375 14.6901 18.5993 14.9601 18.3537C15.1757 18.1587 14.6113 17.5625 14.6563 17.2887C14.6807 17.1218 15.0595 17.4556 15.082 17.48C15.2395 17.6675 15.322 17.9375 15.4045 18.1643C15.5826 18.6537 15.7401 18.8712 16.1507 19.0625C16.1263 19.2968 16.3663 19.4543 16.5801 19.5762C16.8145 19.7093 17.0695 19.7131 17.3188 19.8237C17.5551 19.9306 17.8138 19.9287 18.0332 20.0356C18.3595 20.1931 18.1401 20.3487 18.3238 20.5831C18.5282 20.8456 18.9163 20.6843 19.192 20.7275C19.7826 20.8193 19.6832 21.3837 20.0507 21.7231C20.2513 21.9125 20.5945 21.8918 20.8476 21.92C20.947 21.9312 21.0764 21.9331 21.1551 22.0043C21.352 22.1787 21.1214 22.4187 21.0464 22.5893C20.9432 22.8181 20.872 23.0637 20.827 23.3112C20.7014 24.0012 20.7276 24.7718 21.2301 25.3062C21.7776 25.8893 22.447 26.1537 22.6551 26.9862C22.8332 27.6818 22.6682 28.3625 22.5407 29.0487C22.462 29.4612 21.8976 30.1775 22.4582 30.4812C22.9457 30.7456 23.7745 30.0181 24.0932 29.7406C24.8451 29.0843 25.8389 28.685 26.3339 27.7643C26.5682 27.3275 26.7764 26.8662 27.187 26.5643C27.4026 26.405 27.652 26.3 27.8826 26.1668C28.372 25.8875 28.6645 25.2931 28.8839 24.8C29.1426 24.2018 28.9045 23.8643 28.4357 23.5137ZM19.6063 12.9612C19.7395 12.9293 19.9195 12.9368 19.9757 12.95C20.1913 13.0025 20.3507 13.1712 20.5157 13.3062C20.6357 13.4018 20.737 13.5031 20.8439 13.61C20.9132 13.6793 20.9788 13.7412 20.9639 13.8556C20.9526 13.955 20.8964 14.0037 20.8064 14.0131C20.6432 14.03 20.5701 13.9231 20.4239 13.8987C20.077 13.8406 19.9326 14.4256 19.5857 14.2662C19.4976 14.225 19.5238 14.1518 19.5238 14.0581C19.522 13.9868 19.5238 13.9231 19.5501 13.8612C19.5838 13.7825 19.6382 13.7168 19.7038 13.6587C19.7451 13.6231 19.8126 13.595 19.8445 13.5481C19.9213 13.4281 19.8126 13.3006 19.7038 13.2556C19.6363 13.2275 19.537 13.2256 19.4938 13.1656C19.4132 13.0512 19.492 12.9912 19.6063 12.9612ZM33.5039 19.4525C33.5001 18.89 33.5264 18.1193 33.0576 17.7125C32.6245 17.3356 32.0901 17.5643 31.732 17.9243C31.0382 18.6237 30.757 19.9437 31.3345 20.7931C31.5482 21.1081 31.8201 21.3706 32.1764 21.4531C32.5251 21.5337 33.1907 21.5768 33.3614 21.2206C33.4589 21.0162 33.4214 20.7762 33.4214 20.5531C33.4195 20.1725 33.5076 19.8293 33.5039 19.4525Z" fill="#BDCF46"/>
<path d="M22.6532 18.7381C22.4807 18.6519 22.4151 18.5056 22.3007 18.3894C22.2445 18.3331 22.177 18.2844 22.0795 18.2544C21.8957 18.2019 21.6632 18.2225 21.4739 18.2337C21.1945 18.2506 20.482 18.2975 20.4464 18.6894C20.3995 19.19 21.0876 19.1337 21.4289 19.1281C21.6632 19.1244 21.8901 19.0381 22.1245 19.0962C22.4676 19.1806 22.3907 19.4862 22.657 19.6025C22.7526 19.6437 23.0489 19.7 23.1407 19.7075C23.482 19.7375 24.3014 19.5406 24.0839 19.0531C23.887 18.605 23.0039 18.9125 22.6532 18.7381Z" fill="#BDCF46"/>
</g>
</g>
<defs>
<clipPath id="clip0_1611_956">
<rect width="24" height="24" fill="white" transform="translate(8 8)"/>
</clipPath>
</defs>
</svg>
