<svg width="10" height="12" viewBox="0 0 10 12" fill="none" xmlns="http://www.w3.org/2000/svg">
<rect width="10" height="12" fill="#E7D93F"/>
<path d="M2.63317 10V9.20455L5.09411 6.65483C5.35689 6.37784 5.57351 6.13518 5.74396 5.92685C5.91679 5.71615 6.04581 5.5161 6.13104 5.3267C6.21626 5.13731 6.25888 4.93608 6.25888 4.72301C6.25888 4.48153 6.20206 4.2732 6.08842 4.09801C5.97479 3.92045 5.81972 3.78433 5.62322 3.68963C5.42673 3.59257 5.20537 3.54403 4.95916 3.54403C4.69875 3.54403 4.47147 3.5973 4.27734 3.70384C4.08321 3.81037 3.93407 3.9607 3.8299 4.15483C3.72573 4.34896 3.67365 4.57623 3.67365 4.83665H2.62607C2.62607 4.39394 2.72786 4.00687 2.93146 3.67543C3.13506 3.34399 3.41442 3.08712 3.76953 2.90483C4.12464 2.72017 4.52829 2.62784 4.98047 2.62784C5.43738 2.62784 5.83984 2.71899 6.18786 2.90128C6.53823 3.0812 6.81167 3.32741 7.00817 3.63991C7.20466 3.95005 7.30291 4.30043 7.30291 4.69105C7.30291 4.96094 7.25201 5.22491 7.15021 5.48295C7.05078 5.741 6.87678 6.02865 6.6282 6.34588C6.37962 6.66075 6.03397 7.04309 5.59126 7.4929L4.14595 9.00568V9.05895H7.4201V10H2.63317Z" fill="#111827"/>
</svg>
